<svg width="36" height="37" viewBox="0 0 36 37" fill="none" xmlns="http://www.w3.org/2000/svg">
<path d="M17.985 3.64648C9.705 3.64648 3 10.3665 3 18.6465C3 26.9265 9.705 33.6465 17.985 33.6465C26.28 33.6465 33 26.9265 33 18.6465C33 10.3665 26.28 3.64648 17.985 3.64648ZM28.38 12.6465H23.955C23.475 10.7715 22.785 8.97148 21.885 7.30648C24.645 8.25148 26.94 10.1715 28.38 12.6465ZM18 6.70648C19.245 8.50648 20.22 10.5015 20.865 12.6465H15.135C15.78 10.5015 16.755 8.50648 18 6.70648ZM6.39 21.6465C6.15 20.6865 6 19.6815 6 18.6465C6 17.6115 6.15 16.6065 6.39 15.6465H11.46C11.34 16.6365 11.25 17.6265 11.25 18.6465C11.25 19.6665 11.34 20.6565 11.46 21.6465H6.39ZM7.62 24.6465H12.045C12.525 26.5215 13.215 28.3215 14.115 29.9865C11.355 29.0415 9.06 27.1365 7.62 24.6465ZM12.045 12.6465H7.62C9.06 10.1565 11.355 8.25148 14.115 7.30648C13.215 8.97148 12.525 10.7715 12.045 12.6465ZM18 30.5865C16.755 28.7865 15.78 26.7915 15.135 24.6465H20.865C20.22 26.7915 19.245 28.7865 18 30.5865ZM21.51 21.6465H14.49C14.355 20.6565 14.25 19.6665 14.25 18.6465C14.25 17.6265 14.355 16.6215 14.49 15.6465H21.51C21.645 16.6215 21.75 17.6265 21.75 18.6465C21.75 19.6665 21.645 20.6565 21.51 21.6465ZM21.885 29.9865C22.785 28.3215 23.475 26.5215 23.955 24.6465H28.38C26.94 27.1215 24.645 29.0415 21.885 29.9865ZM24.54 21.6465C24.66 20.6565 24.75 19.6665 24.75 18.6465C24.75 17.6265 24.66 16.6365 24.54 15.6465H29.61C29.85 16.6065 30 17.6115 30 18.6465C30 19.6815 29.85 20.6865 29.61 21.6465H24.54Z" fill="#1A73E8"/>
</svg>
