<svg width="36" height="37" viewBox="0 0 36 37" fill="none" xmlns="http://www.w3.org/2000/svg">
<path d="M29.145 20.1165C29.205 19.6365 29.25 19.1565 29.25 18.6465C29.25 18.1365 29.205 17.6565 29.145 17.1765L32.31 14.7015C32.595 14.4765 32.67 14.0715 32.49 13.7415L29.49 8.55148C29.31 8.22148 28.905 8.10148 28.575 8.22148L24.84 9.72148C24.06 9.12148 23.22 8.62648 22.305 8.25148L21.735 4.27648C21.69 3.91648 21.375 3.64648 21 3.64648H15C14.625 3.64648 14.31 3.91648 14.265 4.27648L13.695 8.25148C12.78 8.62648 11.94 9.13648 11.16 9.72148L7.425 8.22148C7.08 8.08648 6.69 8.22148 6.51 8.55148L3.51 13.7415C3.315 14.0715 3.405 14.4765 3.69 14.7015L6.855 17.1765C6.795 17.6565 6.75 18.1515 6.75 18.6465C6.75 19.1415 6.795 19.6365 6.855 20.1165L3.69 22.5915C3.405 22.8165 3.33 23.2215 3.51 23.5515L6.51 28.7415C6.69 29.0715 7.095 29.1915 7.425 29.0715L11.16 27.5715C11.94 28.1715 12.78 28.6665 13.695 29.0415L14.265 33.0165C14.31 33.3765 14.625 33.6465 15 33.6465H21C21.375 33.6465 21.69 33.3765 21.735 33.0165L22.305 29.0415C23.22 28.6665 24.06 28.1565 24.84 27.5715L28.575 29.0715C28.92 29.2065 29.31 29.0715 29.49 28.7415L32.49 23.5515C32.67 23.2215 32.595 22.8165 32.31 22.5915L29.145 20.1165ZM18 23.8965C15.105 23.8965 12.75 21.5415 12.75 18.6465C12.75 15.7515 15.105 13.3965 18 13.3965C20.895 13.3965 23.25 15.7515 23.25 18.6465C23.25 21.5415 20.895 23.8965 18 23.8965Z" fill="#1A73E8"/>
</svg>
